
     The.Third.Man.1949.720p.BRRiP.x264.AC-3(5.1).mkv-Zen_Bud

Format                           : Matroska
File size                        : 1.47 GiB
Duration                         : 1h 45mn
Overall bit rate                 : 2 001 Kbps
Writing application              : mkvmerge v4.8.0 ('I Got The...') 
Writing library                  : libebml v1.2.0 + libmatroska v1.1.0

Video

Format                           : AVC
Format profile                   : High@L3.1
Format settings, CABAC           : Yes
Format settings, ReFrames        : 4 frames
Format settings, GOP             : M=4, N=47
Codec ID                         : V_MPEG4
Duration                         : 1h 45mn
Bit rate                         : 1 615 Kbps
Width                            : 960 pixels
Height                           : 722 pixels
Display aspect ratio             : 4:3
Frame rate                       : 23.976 fps
Color space                      : YUV
Chroma subsampling               : 4:2:0
Bit depth                        : 8 bits
Scan type                        : Progressive
Bits/(Pixel*Frame)               : 0.097
Stream size                      : 1.16 GiB (79%)
Writing library                  : x264 core 115 r1995 c1e60b9
Encoding settings                : cabac=1 / ref=3 / deblock=1:0:0 / analyse=0x3:0x111 
Audio
ID                               : 2
Format                           : AC-3
Format/Info                      : Audio Coding 3
Mode extension                   : CM (complete main)
Duration                         : 1h 45mn
Bit rate mode                    : Constant
Bit rate                         : 384 Kbps
Channel(s)                       : 1 channel
Channel positions                : Front: C
Sampling rate                    : 48.0 KHz
Bit depth                        : 16 bits
Compression mode                 : Lossy
Stream size                      : 289 MiB (19%)

Text

Format                           : UTF-8
Codec ID                         : S_TEXT/UTF8
Codec ID/Info                    : UTF-8 Plain Text
Language                         : Swedish

======================================================================================
                           The Criterion Collection

SYNOPSIS: Pulp novelist Holly Martins travels to shadowy, postwar Vienna, only to 
find himself investigating the mysterious death of an old friend, black-market 
opportunist Harry Lime—and thus begins this legendary tale of love, deception, 
and murder. Thanks to brilliant performances by Joseph Cotten, Alida Valli, 
and Orson Welles; Anton Karas’s evocative zither score; Graham Greene’s razor-sharp 
dialogue; and Robert Krasker’s dramatic use of light and shadow, The Third Man, 
directed by the inimitable Carol Reed, only grows in stature as the years pass.
 
http://www.criterion.com/films/236-the-third-man
======================================================================================
 
http://www.phyrefile.com/image/view/WZlr47fSbzNXltu7 
http://www.phyrefile.com/image/view/Ley58ssxq2JubHx4 
http://www.phyrefile.com/image/view/anAlAmyik0mvHLnM 
http://www.phyrefile.com/image/view/dMQFUg7mU5u9Ybrz 
http://www.phyrefile.com/image/view/PqHjo5lf1yBKlrKH 
http://www.phyrefile.com/image/view/cnbXdJjamfpKytlh 
http://www.phyrefile.com/image/view/uv3N6ODKwJWU8KJu 
http://www.phyrefile.com/image/view/j3ggdzVmy90fSsiy 
http://www.phyrefile.com/image/view/R7gn41bgKMlvXemH 
http://www.phyrefile.com/image/view/Q2tZe7lTY0GnKMBZ 
http://www.phyrefile.com/image/view/6WARBO3I1ytDJ4FM 
http://www.phyrefile.com/image/view/REarfexd5qnzWeEN
